<mxfile host="app.diagrams.net" agent="Mozilla/5.0 (Windows NT 10.0; Win64; x64; rv:131.0) Gecko/20100101 Firefox/131.0" version="24.7.17">
  <diagram name="Page-1" id="vC-JoRA35cCn0tKTyRB9">
    <mxGraphModel dx="1882" dy="446" grid="1" gridSize="10" guides="1" tooltips="1" connect="1" arrows="1" fold="1" page="1" pageScale="1" pageWidth="850" pageHeight="1100" math="0" shadow="0">
      <root>
        <mxCell id="0" />
        <mxCell id="1" parent="0" />
        <mxCell id="_3DtKtyULnJ21L_lDsf4-2" value="&lt;font style=&quot;font-size: 12px;&quot; face=&quot;Times New Roman&quot;&gt;Nhân viên&lt;br&gt;&lt;/font&gt;" style="text;html=1;align=center;verticalAlign=middle;resizable=0;points=[];autosize=1;strokeColor=none;fillColor=none;" parent="1" vertex="1">
          <mxGeometry x="110" y="50" width="70" height="30" as="geometry" />
        </mxCell>
        <mxCell id="_3DtKtyULnJ21L_lDsf4-3" value="&lt;u&gt;MNV&lt;br&gt;&lt;/u&gt;" style="rounded=0;whiteSpace=wrap;html=1;" parent="1" vertex="1">
          <mxGeometry x="200" y="50" width="80" height="30" as="geometry" />
        </mxCell>
        <mxCell id="_3DtKtyULnJ21L_lDsf4-4" value="Địa chỉ" style="rounded=0;whiteSpace=wrap;html=1;" parent="1" vertex="1">
          <mxGeometry x="280" y="50" width="80" height="30" as="geometry" />
        </mxCell>
        <mxCell id="_3DtKtyULnJ21L_lDsf4-5" value="&lt;div align=&quot;justify&quot;&gt;Họ&lt;/div&gt;" style="rounded=0;whiteSpace=wrap;html=1;align=center;" parent="1" vertex="1">
          <mxGeometry x="360" y="50" width="80" height="30" as="geometry" />
        </mxCell>
        <mxCell id="_3DtKtyULnJ21L_lDsf4-7" value="Tên" style="rounded=0;whiteSpace=wrap;html=1;" parent="1" vertex="1">
          <mxGeometry x="440" y="50" width="80" height="30" as="geometry" />
        </mxCell>
        <mxCell id="_3DtKtyULnJ21L_lDsf4-8" value="Giới tính" style="rounded=0;whiteSpace=wrap;html=1;" parent="1" vertex="1">
          <mxGeometry x="520" y="50" width="80" height="30" as="geometry" />
        </mxCell>
        <mxCell id="_3DtKtyULnJ21L_lDsf4-9" value="Ngày tham gia" style="rounded=0;whiteSpace=wrap;html=1;" parent="1" vertex="1">
          <mxGeometry x="600" y="50" width="80" height="30" as="geometry" />
        </mxCell>
        <mxCell id="_3DtKtyULnJ21L_lDsf4-10" value="SĐT" style="rounded=0;whiteSpace=wrap;html=1;" parent="1" vertex="1">
          <mxGeometry x="680" y="50" width="80" height="30" as="geometry" />
        </mxCell>
        <mxCell id="_3DtKtyULnJ21L_lDsf4-11" value="Năm sinh" style="rounded=0;whiteSpace=wrap;html=1;" parent="1" vertex="1">
          <mxGeometry x="760" y="50" width="80" height="30" as="geometry" />
        </mxCell>
        <mxCell id="_3DtKtyULnJ21L_lDsf4-12" value="Thâm niên" style="rounded=0;whiteSpace=wrap;html=1;" parent="1" vertex="1">
          <mxGeometry x="840" y="50" width="80" height="30" as="geometry" />
        </mxCell>
        <mxCell id="_3DtKtyULnJ21L_lDsf4-13" value="&lt;font face=&quot;Times New Roman&quot; style=&quot;font-size: 12px;&quot;&gt;Chi nhánh&lt;br&gt;&lt;/font&gt;" style="text;html=1;align=center;verticalAlign=middle;resizable=0;points=[];autosize=1;strokeColor=none;fillColor=none;" parent="1" vertex="1">
          <mxGeometry x="115" y="128" width="70" height="30" as="geometry" />
        </mxCell>
        <mxCell id="_3DtKtyULnJ21L_lDsf4-14" value="&lt;u&gt;MCN&lt;/u&gt;" style="rounded=0;whiteSpace=wrap;html=1;" parent="1" vertex="1">
          <mxGeometry x="200" y="128" width="80" height="30" as="geometry" />
        </mxCell>
        <mxCell id="_3DtKtyULnJ21L_lDsf4-15" value="Tên chi nhánh" style="rounded=0;whiteSpace=wrap;html=1;" parent="1" vertex="1">
          <mxGeometry x="280" y="128" width="80" height="30" as="geometry" />
        </mxCell>
        <mxCell id="_3DtKtyULnJ21L_lDsf4-16" value="Địa chỉ" style="rounded=0;whiteSpace=wrap;html=1;" parent="1" vertex="1">
          <mxGeometry x="360" y="128" width="80" height="30" as="geometry" />
        </mxCell>
        <mxCell id="_3DtKtyULnJ21L_lDsf4-17" value="SĐT" style="rounded=0;whiteSpace=wrap;html=1;" parent="1" vertex="1">
          <mxGeometry x="440" y="128" width="80" height="30" as="geometry" />
        </mxCell>
        <mxCell id="_3DtKtyULnJ21L_lDsf4-23" style="edgeStyle=orthogonalEdgeStyle;rounded=0;orthogonalLoop=1;jettySize=auto;html=1;entryX=0.5;entryY=0;entryDx=0;entryDy=0;" parent="1" target="_3DtKtyULnJ21L_lDsf4-14" edge="1">
          <mxGeometry relative="1" as="geometry">
            <mxPoint x="240" y="100" as="targetPoint" />
            <mxPoint x="960" y="80" as="sourcePoint" />
            <Array as="points">
              <mxPoint x="960" y="100" />
              <mxPoint x="240" y="100" />
            </Array>
          </mxGeometry>
        </mxCell>
        <mxCell id="_3DtKtyULnJ21L_lDsf4-19" value="MCN" style="rounded=0;whiteSpace=wrap;html=1;" parent="1" vertex="1">
          <mxGeometry x="920" y="50" width="80" height="30" as="geometry" />
        </mxCell>
        <mxCell id="_3DtKtyULnJ21L_lDsf4-21" value="" style="endArrow=none;dashed=1;html=1;rounded=0;entryX=0.875;entryY=0.667;entryDx=0;entryDy=0;entryPerimeter=0;" parent="1" target="_3DtKtyULnJ21L_lDsf4-19" edge="1">
          <mxGeometry width="50" height="50" relative="1" as="geometry">
            <mxPoint x="940" y="70" as="sourcePoint" />
            <mxPoint x="975" y="70" as="targetPoint" />
          </mxGeometry>
        </mxCell>
        <mxCell id="_3DtKtyULnJ21L_lDsf4-24" value="&lt;font face=&quot;Times New Roman&quot;&gt;Khách hàng&lt;/font&gt;" style="text;html=1;align=center;verticalAlign=middle;resizable=0;points=[];autosize=1;strokeColor=none;fillColor=none;" parent="1" vertex="1">
          <mxGeometry x="110" y="208" width="80" height="30" as="geometry" />
        </mxCell>
        <mxCell id="_3DtKtyULnJ21L_lDsf4-25" value="&lt;u&gt;MKH&lt;/u&gt;" style="rounded=0;whiteSpace=wrap;html=1;" parent="1" vertex="1">
          <mxGeometry x="200" y="208" width="80" height="30" as="geometry" />
        </mxCell>
        <mxCell id="_3DtKtyULnJ21L_lDsf4-26" value="Giới tính" style="rounded=0;whiteSpace=wrap;html=1;" parent="1" vertex="1">
          <mxGeometry x="280" y="208" width="80" height="30" as="geometry" />
        </mxCell>
        <mxCell id="_3DtKtyULnJ21L_lDsf4-27" value="Email" style="rounded=0;whiteSpace=wrap;html=1;" parent="1" vertex="1">
          <mxGeometry x="360" y="208" width="80" height="30" as="geometry" />
        </mxCell>
        <mxCell id="_3DtKtyULnJ21L_lDsf4-28" value="Năm sinh" style="rounded=0;whiteSpace=wrap;html=1;" parent="1" vertex="1">
          <mxGeometry x="440" y="208" width="80" height="30" as="geometry" />
        </mxCell>
        <mxCell id="_3DtKtyULnJ21L_lDsf4-29" value="Địa chỉ" style="rounded=0;whiteSpace=wrap;html=1;" parent="1" vertex="1">
          <mxGeometry x="520" y="208" width="80" height="30" as="geometry" />
        </mxCell>
        <mxCell id="_3DtKtyULnJ21L_lDsf4-30" value="Họ" style="rounded=0;whiteSpace=wrap;html=1;" parent="1" vertex="1">
          <mxGeometry x="600" y="208" width="80" height="30" as="geometry" />
        </mxCell>
        <mxCell id="_3DtKtyULnJ21L_lDsf4-31" value="Tên" style="rounded=0;whiteSpace=wrap;html=1;" parent="1" vertex="1">
          <mxGeometry x="680" y="208" width="80" height="30" as="geometry" />
        </mxCell>
        <mxCell id="_3DtKtyULnJ21L_lDsf4-32" value="Số điện thoại" style="rounded=0;whiteSpace=wrap;html=1;" parent="1" vertex="1">
          <mxGeometry x="760" y="208" width="80" height="30" as="geometry" />
        </mxCell>
        <mxCell id="_3DtKtyULnJ21L_lDsf4-33" value="&lt;font face=&quot;Times New Roman&quot;&gt;Tài khoản gửi nhận&lt;br&gt;&lt;/font&gt;" style="text;html=1;align=center;verticalAlign=middle;resizable=0;points=[];autosize=1;strokeColor=none;fillColor=none;" parent="1" vertex="1">
          <mxGeometry x="80" y="288" width="120" height="30" as="geometry" />
        </mxCell>
        <mxCell id="_3DtKtyULnJ21L_lDsf4-34" value="&lt;u&gt;STK&lt;/u&gt;" style="rounded=0;whiteSpace=wrap;html=1;" parent="1" vertex="1">
          <mxGeometry x="200" y="288" width="80" height="30" as="geometry" />
        </mxCell>
        <mxCell id="_3DtKtyULnJ21L_lDsf4-35" value="Ngày mở tài khoản" style="rounded=0;whiteSpace=wrap;html=1;" parent="1" vertex="1">
          <mxGeometry x="280" y="288" width="80" height="30" as="geometry" />
        </mxCell>
        <mxCell id="_3DtKtyULnJ21L_lDsf4-36" value="Trạng thái " style="rounded=0;whiteSpace=wrap;html=1;" parent="1" vertex="1">
          <mxGeometry x="360" y="288" width="80" height="30" as="geometry" />
        </mxCell>
        <mxCell id="_3DtKtyULnJ21L_lDsf4-37" value="Hạn mức dao dịch" style="rounded=0;whiteSpace=wrap;html=1;" parent="1" vertex="1">
          <mxGeometry x="440" y="288" width="80" height="30" as="geometry" />
        </mxCell>
        <mxCell id="_3DtKtyULnJ21L_lDsf4-38" value="Số dư" style="rounded=0;whiteSpace=wrap;html=1;" parent="1" vertex="1">
          <mxGeometry x="520" y="288" width="80" height="30" as="geometry" />
        </mxCell>
        <mxCell id="_3DtKtyULnJ21L_lDsf4-39" value="Phí dịch vụ" style="rounded=0;whiteSpace=wrap;html=1;" parent="1" vertex="1">
          <mxGeometry x="600" y="288" width="80" height="30" as="geometry" />
        </mxCell>
        <mxCell id="_3DtKtyULnJ21L_lDsf4-44" style="edgeStyle=orthogonalEdgeStyle;rounded=0;orthogonalLoop=1;jettySize=auto;html=1;" parent="1" edge="1">
          <mxGeometry relative="1" as="geometry">
            <mxPoint x="240" y="240" as="targetPoint" />
            <mxPoint x="720" y="288" as="sourcePoint" />
            <Array as="points">
              <mxPoint x="720" y="268" />
            </Array>
          </mxGeometry>
        </mxCell>
        <mxCell id="_3DtKtyULnJ21L_lDsf4-42" value="MKH" style="rounded=0;whiteSpace=wrap;html=1;" parent="1" vertex="1">
          <mxGeometry x="680" y="288" width="80" height="30" as="geometry" />
        </mxCell>
        <mxCell id="_3DtKtyULnJ21L_lDsf4-43" value="" style="endArrow=none;dashed=1;html=1;rounded=0;" parent="1" edge="1">
          <mxGeometry width="50" height="50" relative="1" as="geometry">
            <mxPoint x="695" y="310" as="sourcePoint" />
            <mxPoint x="745" y="310" as="targetPoint" />
          </mxGeometry>
        </mxCell>
        <mxCell id="_3DtKtyULnJ21L_lDsf4-45" value="Sở hữu" style="text;html=1;align=center;verticalAlign=middle;resizable=0;points=[];autosize=1;strokeColor=none;fillColor=none;" parent="1" vertex="1">
          <mxGeometry x="120" y="368" width="60" height="30" as="geometry" />
        </mxCell>
        <mxCell id="_3DtKtyULnJ21L_lDsf4-51" style="edgeStyle=orthogonalEdgeStyle;rounded=0;orthogonalLoop=1;jettySize=auto;html=1;" parent="1" source="_3DtKtyULnJ21L_lDsf4-46" edge="1">
          <mxGeometry relative="1" as="geometry">
            <mxPoint x="240" y="320" as="targetPoint" />
          </mxGeometry>
        </mxCell>
        <mxCell id="_3DtKtyULnJ21L_lDsf4-46" value="&lt;u&gt;STK&lt;/u&gt;" style="rounded=0;whiteSpace=wrap;html=1;" parent="1" vertex="1">
          <mxGeometry x="200" y="368" width="80" height="30" as="geometry" />
        </mxCell>
        <mxCell id="_3DtKtyULnJ21L_lDsf4-47" value="&lt;u&gt;MKH&lt;/u&gt;" style="rounded=0;whiteSpace=wrap;html=1;" parent="1" vertex="1">
          <mxGeometry x="280" y="368" width="80" height="30" as="geometry" />
        </mxCell>
        <mxCell id="_3DtKtyULnJ21L_lDsf4-53" style="edgeStyle=orthogonalEdgeStyle;rounded=0;orthogonalLoop=1;jettySize=auto;html=1;" parent="1" edge="1">
          <mxGeometry relative="1" as="geometry">
            <mxPoint x="220" y="240" as="targetPoint" />
            <mxPoint x="290" y="367" as="sourcePoint" />
            <Array as="points">
              <mxPoint x="290" y="368" />
              <mxPoint x="321" y="368" />
              <mxPoint x="321" y="339" />
              <mxPoint x="70" y="339" />
              <mxPoint x="70" y="260" />
            </Array>
          </mxGeometry>
        </mxCell>
        <mxCell id="_3DtKtyULnJ21L_lDsf4-55" style="edgeStyle=orthogonalEdgeStyle;rounded=0;orthogonalLoop=1;jettySize=auto;html=1;exitX=0.5;exitY=0;exitDx=0;exitDy=0;" parent="1" source="_3DtKtyULnJ21L_lDsf4-48" edge="1">
          <mxGeometry relative="1" as="geometry">
            <mxPoint x="239" y="160" as="targetPoint" />
            <mxPoint x="400" y="360" as="sourcePoint" />
            <Array as="points">
              <mxPoint x="400" y="340" />
              <mxPoint x="890" y="340" />
              <mxPoint x="890" y="180" />
            </Array>
          </mxGeometry>
        </mxCell>
        <mxCell id="_3DtKtyULnJ21L_lDsf4-48" value="&lt;u&gt;MCN&lt;/u&gt;" style="rounded=0;whiteSpace=wrap;html=1;" parent="1" vertex="1">
          <mxGeometry x="360" y="368" width="80" height="30" as="geometry" />
        </mxCell>
        <mxCell id="_3DtKtyULnJ21L_lDsf4-56" value="Giao dịch" style="text;html=1;align=center;verticalAlign=middle;resizable=0;points=[];autosize=1;strokeColor=none;fillColor=none;" parent="1" vertex="1">
          <mxGeometry x="115" y="438" width="70" height="30" as="geometry" />
        </mxCell>
        <mxCell id="_3DtKtyULnJ21L_lDsf4-57" value="&lt;u&gt;MGD&lt;/u&gt;" style="rounded=0;whiteSpace=wrap;html=1;" parent="1" vertex="1">
          <mxGeometry x="200" y="450" width="80" height="30" as="geometry" />
        </mxCell>
        <mxCell id="_3DtKtyULnJ21L_lDsf4-58" value="Số tiền giao dịch" style="rounded=0;whiteSpace=wrap;html=1;" parent="1" vertex="1">
          <mxGeometry x="280" y="450" width="80" height="30" as="geometry" />
        </mxCell>
        <mxCell id="_3DtKtyULnJ21L_lDsf4-59" value="STK" style="rounded=0;whiteSpace=wrap;html=1;" parent="1" vertex="1">
          <mxGeometry x="360" y="450" width="80" height="30" as="geometry" />
        </mxCell>
        <mxCell id="_3DtKtyULnJ21L_lDsf4-60" value="" style="endArrow=none;dashed=1;html=1;rounded=0;" parent="1" edge="1">
          <mxGeometry width="50" height="50" relative="1" as="geometry">
            <mxPoint x="375" y="470" as="sourcePoint" />
            <mxPoint x="425" y="470" as="targetPoint" />
          </mxGeometry>
        </mxCell>
        <mxCell id="_3DtKtyULnJ21L_lDsf4-62" value="Thời gian giao dịch" style="rounded=0;whiteSpace=wrap;html=1;" parent="1" vertex="1">
          <mxGeometry x="520" y="450" width="80" height="30" as="geometry" />
        </mxCell>
        <mxCell id="_3DtKtyULnJ21L_lDsf4-63" value="Nội dung giao dịch" style="rounded=0;whiteSpace=wrap;html=1;" parent="1" vertex="1">
          <mxGeometry x="440" y="450" width="80" height="30" as="geometry" />
        </mxCell>
        <mxCell id="_3DtKtyULnJ21L_lDsf4-64" value="" style="endArrow=none;dashed=1;html=1;rounded=0;" parent="1" edge="1">
          <mxGeometry width="50" height="50" relative="1" as="geometry">
            <mxPoint x="385" y="480" as="sourcePoint" />
            <mxPoint x="435" y="480" as="targetPoint" />
          </mxGeometry>
        </mxCell>
        <mxCell id="_3DtKtyULnJ21L_lDsf4-66" style="edgeStyle=orthogonalEdgeStyle;rounded=0;orthogonalLoop=1;jettySize=auto;html=1;" parent="1" edge="1">
          <mxGeometry relative="1" as="geometry">
            <mxPoint x="230" y="320" as="targetPoint" />
            <mxPoint x="370" y="449" as="sourcePoint" />
            <Array as="points">
              <mxPoint x="370" y="450" />
              <mxPoint x="401" y="450" />
              <mxPoint x="401" y="421" />
              <mxPoint x="70" y="421" />
              <mxPoint x="70" y="350" />
            </Array>
          </mxGeometry>
        </mxCell>
        <mxCell id="_3DtKtyULnJ21L_lDsf4-67" value="MGD" style="rounded=0;whiteSpace=wrap;html=1;" parent="1" vertex="1">
          <mxGeometry x="760" y="288" width="80" height="30" as="geometry" />
        </mxCell>
        <mxCell id="_3DtKtyULnJ21L_lDsf4-68" value="" style="endArrow=none;dashed=1;html=1;rounded=0;" parent="1" edge="1">
          <mxGeometry width="50" height="50" relative="1" as="geometry">
            <mxPoint x="775" y="310" as="sourcePoint" />
            <mxPoint x="825" y="310" as="targetPoint" />
          </mxGeometry>
        </mxCell>
        <mxCell id="_3DtKtyULnJ21L_lDsf4-71" value="Gửi" style="text;html=1;align=center;verticalAlign=middle;resizable=0;points=[];autosize=1;strokeColor=none;fillColor=none;" parent="1" vertex="1">
          <mxGeometry x="130" y="530" width="40" height="30" as="geometry" />
        </mxCell>
        <mxCell id="_3DtKtyULnJ21L_lDsf4-72" value="Nhận" style="text;html=1;align=center;verticalAlign=middle;resizable=0;points=[];autosize=1;strokeColor=none;fillColor=none;" parent="1" vertex="1">
          <mxGeometry x="125" y="610" width="50" height="30" as="geometry" />
        </mxCell>
        <mxCell id="_3DtKtyULnJ21L_lDsf4-95" style="edgeStyle=orthogonalEdgeStyle;rounded=0;orthogonalLoop=1;jettySize=auto;html=1;entryX=0.25;entryY=0;entryDx=0;entryDy=0;" parent="1" source="_3DtKtyULnJ21L_lDsf4-80" target="_3DtKtyULnJ21L_lDsf4-34" edge="1">
          <mxGeometry relative="1" as="geometry">
            <mxPoint x="220" y="280" as="targetPoint" />
            <Array as="points">
              <mxPoint x="240" y="600" />
              <mxPoint x="40" y="600" />
              <mxPoint x="40" y="270" />
              <mxPoint x="220" y="270" />
            </Array>
          </mxGeometry>
        </mxCell>
        <mxCell id="_3DtKtyULnJ21L_lDsf4-80" value="&lt;u&gt;STK&lt;/u&gt;" style="rounded=0;whiteSpace=wrap;html=1;" parent="1" vertex="1">
          <mxGeometry x="200" y="529.33" width="80" height="30" as="geometry" />
        </mxCell>
        <mxCell id="_3DtKtyULnJ21L_lDsf4-97" style="edgeStyle=orthogonalEdgeStyle;rounded=0;orthogonalLoop=1;jettySize=auto;html=1;entryX=0.25;entryY=1;entryDx=0;entryDy=0;" parent="1" source="_3DtKtyULnJ21L_lDsf4-81" target="_3DtKtyULnJ21L_lDsf4-57" edge="1">
          <mxGeometry relative="1" as="geometry">
            <mxPoint x="220" y="510" as="targetPoint" />
            <Array as="points">
              <mxPoint x="320" y="510" />
              <mxPoint x="220" y="510" />
            </Array>
          </mxGeometry>
        </mxCell>
        <mxCell id="_3DtKtyULnJ21L_lDsf4-81" value="&lt;u&gt;MGD&lt;/u&gt;" style="rounded=0;whiteSpace=wrap;html=1;" parent="1" vertex="1">
          <mxGeometry x="280" y="529.33" width="80" height="30" as="geometry" />
        </mxCell>
        <mxCell id="_3DtKtyULnJ21L_lDsf4-82" value="&lt;u&gt;Mã log&lt;/u&gt;" style="rounded=0;whiteSpace=wrap;html=1;" parent="1" vertex="1">
          <mxGeometry x="360" y="529.33" width="80" height="30" as="geometry" />
        </mxCell>
        <mxCell id="_3DtKtyULnJ21L_lDsf4-86" value="" style="endArrow=none;dashed=1;html=1;rounded=0;" parent="1" edge="1">
          <mxGeometry width="50" height="50" relative="1" as="geometry">
            <mxPoint x="385" y="559.33" as="sourcePoint" />
            <mxPoint x="435" y="559.33" as="targetPoint" />
          </mxGeometry>
        </mxCell>
        <mxCell id="_3DtKtyULnJ21L_lDsf4-87" value="&lt;u&gt;STK&lt;/u&gt;" style="rounded=0;whiteSpace=wrap;html=1;" parent="1" vertex="1">
          <mxGeometry x="200" y="610" width="80" height="30" as="geometry" />
        </mxCell>
        <mxCell id="_3DtKtyULnJ21L_lDsf4-88" value="&lt;u&gt;MGD&lt;/u&gt;" style="rounded=0;whiteSpace=wrap;html=1;" parent="1" vertex="1">
          <mxGeometry x="280" y="610" width="80" height="30" as="geometry" />
        </mxCell>
        <mxCell id="_3DtKtyULnJ21L_lDsf4-89" value="&lt;u&gt;Mã Log&lt;br&gt;&lt;/u&gt;" style="rounded=0;whiteSpace=wrap;html=1;" parent="1" vertex="1">
          <mxGeometry x="360" y="610" width="80" height="30" as="geometry" />
        </mxCell>
        <mxCell id="_3DtKtyULnJ21L_lDsf4-93" value="" style="endArrow=none;dashed=1;html=1;rounded=0;" parent="1" edge="1">
          <mxGeometry width="50" height="50" relative="1" as="geometry">
            <mxPoint x="385" y="640" as="sourcePoint" />
            <mxPoint x="435" y="640" as="targetPoint" />
          </mxGeometry>
        </mxCell>
        <mxCell id="_3DtKtyULnJ21L_lDsf4-113" style="edgeStyle=orthogonalEdgeStyle;rounded=0;orthogonalLoop=1;jettySize=auto;html=1;" parent="1" edge="1">
          <mxGeometry relative="1" as="geometry">
            <mxPoint x="240" y="480" as="targetPoint" />
            <mxPoint x="810" y="318" as="sourcePoint" />
            <Array as="points">
              <mxPoint x="800" y="318" />
              <mxPoint x="800" y="500" />
              <mxPoint x="240" y="500" />
            </Array>
          </mxGeometry>
        </mxCell>
        <mxCell id="_3DtKtyULnJ21L_lDsf4-114" style="edgeStyle=orthogonalEdgeStyle;rounded=0;orthogonalLoop=1;jettySize=auto;html=1;entryX=0.133;entryY=-0.044;entryDx=0;entryDy=0;entryPerimeter=0;" parent="1" target="_3DtKtyULnJ21L_lDsf4-34" edge="1">
          <mxGeometry relative="1" as="geometry">
            <mxPoint x="210" y="280" as="targetPoint" />
            <mxPoint x="240" y="639" as="sourcePoint" />
            <Array as="points">
              <mxPoint x="240" y="660" />
              <mxPoint x="30" y="660" />
              <mxPoint x="30" y="280" />
              <mxPoint x="211" y="280" />
            </Array>
          </mxGeometry>
        </mxCell>
        <mxCell id="_3DtKtyULnJ21L_lDsf4-119" style="edgeStyle=orthogonalEdgeStyle;rounded=0;orthogonalLoop=1;jettySize=auto;html=1;entryX=0.125;entryY=1.067;entryDx=0;entryDy=0;entryPerimeter=0;" parent="1" target="_3DtKtyULnJ21L_lDsf4-57" edge="1">
          <mxGeometry relative="1" as="geometry">
            <mxPoint x="210" y="520" as="targetPoint" />
            <mxPoint x="320" y="610" as="sourcePoint" />
            <Array as="points">
              <mxPoint x="320" y="570" />
              <mxPoint x="120" y="570" />
              <mxPoint x="120" y="520" />
              <mxPoint x="210" y="520" />
            </Array>
          </mxGeometry>
        </mxCell>
        <mxCell id="_3DtKtyULnJ21L_lDsf4-120" value="Tài khoản vay" style="text;html=1;align=center;verticalAlign=middle;resizable=0;points=[];autosize=1;strokeColor=none;fillColor=none;fontFamily=Helvetica;fontSize=11;fontColor=default;labelBackgroundColor=default;" parent="1" vertex="1">
          <mxGeometry x="85" y="680" width="90" height="30" as="geometry" />
        </mxCell>
        <mxCell id="_3DtKtyULnJ21L_lDsf4-121" value="&lt;u&gt;Mã tài khoản vay&lt;br&gt;&lt;/u&gt;" style="rounded=0;whiteSpace=wrap;html=1;" parent="1" vertex="1">
          <mxGeometry x="200" y="690" width="80" height="30" as="geometry" />
        </mxCell>
        <mxCell id="_3DtKtyULnJ21L_lDsf4-122" value="Trạng thái" style="rounded=0;whiteSpace=wrap;html=1;" parent="1" vertex="1">
          <mxGeometry x="280" y="690" width="80" height="30" as="geometry" />
        </mxCell>
        <mxCell id="_3DtKtyULnJ21L_lDsf4-123" value="Lần vay gần nhất" style="rounded=0;whiteSpace=wrap;html=1;" parent="1" vertex="1">
          <mxGeometry x="360" y="690" width="80" height="30" as="geometry" />
        </mxCell>
        <mxCell id="09Z2PJbqX6GgQNz3F8g0-1" value="Log giao dich" style="text;html=1;align=center;verticalAlign=middle;resizable=0;points=[];autosize=1;strokeColor=none;fillColor=none;" vertex="1" parent="1">
          <mxGeometry x="70" y="758" width="90" height="30" as="geometry" />
        </mxCell>
        <mxCell id="09Z2PJbqX6GgQNz3F8g0-6" value="&lt;u&gt;Mã log&lt;br&gt;&lt;/u&gt;" style="rounded=0;whiteSpace=wrap;html=1;" vertex="1" parent="1">
          <mxGeometry x="200" y="770" width="80" height="30" as="geometry" />
        </mxCell>
        <mxCell id="09Z2PJbqX6GgQNz3F8g0-7" value="Hạn lưu" style="rounded=0;whiteSpace=wrap;html=1;" vertex="1" parent="1">
          <mxGeometry x="280" y="770" width="80" height="30" as="geometry" />
        </mxCell>
        <mxCell id="09Z2PJbqX6GgQNz3F8g0-8" value="Số bản ghi" style="rounded=0;whiteSpace=wrap;html=1;" vertex="1" parent="1">
          <mxGeometry x="360" y="770" width="80" height="30" as="geometry" />
        </mxCell>
        <mxCell id="09Z2PJbqX6GgQNz3F8g0-11" value="Vay" style="text;html=1;align=center;verticalAlign=middle;resizable=0;points=[];autosize=1;strokeColor=none;fillColor=none;" vertex="1" parent="1">
          <mxGeometry x="110" y="838" width="40" height="30" as="geometry" />
        </mxCell>
        <mxCell id="09Z2PJbqX6GgQNz3F8g0-20" style="edgeStyle=orthogonalEdgeStyle;rounded=0;orthogonalLoop=1;jettySize=auto;html=1;entryX=0.5;entryY=1;entryDx=0;entryDy=0;" edge="1" parent="1" target="_3DtKtyULnJ21L_lDsf4-121">
          <mxGeometry relative="1" as="geometry">
            <mxPoint x="240" y="740" as="targetPoint" />
            <mxPoint x="240" y="880" as="sourcePoint" />
            <Array as="points">
              <mxPoint x="240" y="900" />
              <mxPoint x="60" y="900" />
              <mxPoint x="60" y="740" />
              <mxPoint x="240" y="740" />
            </Array>
          </mxGeometry>
        </mxCell>
        <mxCell id="09Z2PJbqX6GgQNz3F8g0-12" value="&lt;u&gt;Mã tài khoản vay&lt;br&gt;&lt;/u&gt;" style="rounded=0;whiteSpace=wrap;html=1;" vertex="1" parent="1">
          <mxGeometry x="200" y="850" width="80" height="30" as="geometry" />
        </mxCell>
        <mxCell id="09Z2PJbqX6GgQNz3F8g0-22" style="edgeStyle=orthogonalEdgeStyle;rounded=0;orthogonalLoop=1;jettySize=auto;html=1;entryX=0.25;entryY=0;entryDx=0;entryDy=0;" edge="1" parent="1" target="_3DtKtyULnJ21L_lDsf4-14">
          <mxGeometry relative="1" as="geometry">
            <mxPoint x="220" y="100" as="targetPoint" />
            <mxPoint x="310" y="880" as="sourcePoint" />
            <Array as="points">
              <mxPoint x="320" y="880" />
              <mxPoint x="320" y="910" />
              <mxPoint x="20" y="910" />
              <mxPoint x="20" y="100" />
              <mxPoint x="220" y="100" />
            </Array>
          </mxGeometry>
        </mxCell>
        <mxCell id="09Z2PJbqX6GgQNz3F8g0-13" value="&lt;u&gt;MCN&lt;/u&gt;" style="rounded=0;whiteSpace=wrap;html=1;" vertex="1" parent="1">
          <mxGeometry x="280" y="850" width="80" height="30" as="geometry" />
        </mxCell>
        <mxCell id="09Z2PJbqX6GgQNz3F8g0-23" style="edgeStyle=orthogonalEdgeStyle;rounded=0;orthogonalLoop=1;jettySize=auto;html=1;entryX=0.5;entryY=1;entryDx=0;entryDy=0;" edge="1" parent="1" source="09Z2PJbqX6GgQNz3F8g0-14" target="09Z2PJbqX6GgQNz3F8g0-6">
          <mxGeometry relative="1" as="geometry">
            <mxPoint x="240" y="820" as="targetPoint" />
            <Array as="points">
              <mxPoint x="410" y="940" />
              <mxPoint x="180" y="940" />
              <mxPoint x="180" y="820" />
              <mxPoint x="240" y="820" />
            </Array>
          </mxGeometry>
        </mxCell>
        <mxCell id="09Z2PJbqX6GgQNz3F8g0-14" value="&lt;u&gt;Mã Log&lt;br&gt;&lt;/u&gt;" style="rounded=0;whiteSpace=wrap;html=1;" vertex="1" parent="1">
          <mxGeometry x="360" y="850" width="80" height="30" as="geometry" />
        </mxCell>
        <mxCell id="09Z2PJbqX6GgQNz3F8g0-16" value="Ngày vay" style="rounded=0;whiteSpace=wrap;html=1;" vertex="1" parent="1">
          <mxGeometry x="440" y="850" width="80" height="30" as="geometry" />
        </mxCell>
        <mxCell id="09Z2PJbqX6GgQNz3F8g0-17" value="Số tiền vay" style="rounded=0;whiteSpace=wrap;html=1;" vertex="1" parent="1">
          <mxGeometry x="520" y="850" width="80" height="30" as="geometry" />
        </mxCell>
        <mxCell id="09Z2PJbqX6GgQNz3F8g0-18" value="lãi suất" style="rounded=0;whiteSpace=wrap;html=1;" vertex="1" parent="1">
          <mxGeometry x="600" y="850" width="80" height="30" as="geometry" />
        </mxCell>
        <mxCell id="09Z2PJbqX6GgQNz3F8g0-24" value="Quản lý" style="text;html=1;align=center;verticalAlign=middle;resizable=0;points=[];autosize=1;strokeColor=none;fillColor=none;" vertex="1" parent="1">
          <mxGeometry x="85" y="968" width="60" height="30" as="geometry" />
        </mxCell>
        <mxCell id="09Z2PJbqX6GgQNz3F8g0-29" style="edgeStyle=orthogonalEdgeStyle;rounded=0;orthogonalLoop=1;jettySize=auto;html=1;entryX=0.5;entryY=0;entryDx=0;entryDy=0;" edge="1" parent="1" target="_3DtKtyULnJ21L_lDsf4-3">
          <mxGeometry relative="1" as="geometry">
            <mxPoint x="240" y="30" as="targetPoint" />
            <mxPoint x="240" y="998" as="sourcePoint" />
            <Array as="points">
              <mxPoint x="240" y="1020" />
              <mxPoint x="-10" y="1020" />
              <mxPoint x="-10" y="30" />
              <mxPoint x="240" y="30" />
            </Array>
          </mxGeometry>
        </mxCell>
        <mxCell id="09Z2PJbqX6GgQNz3F8g0-25" value="&lt;u&gt;MNV&lt;/u&gt;" style="rounded=0;whiteSpace=wrap;html=1;" vertex="1" parent="1">
          <mxGeometry x="200" y="968" width="80" height="30" as="geometry" />
        </mxCell>
        <mxCell id="09Z2PJbqX6GgQNz3F8g0-30" style="edgeStyle=orthogonalEdgeStyle;rounded=0;orthogonalLoop=1;jettySize=auto;html=1;entryX=0;entryY=0.5;entryDx=0;entryDy=0;" edge="1" parent="1" source="09Z2PJbqX6GgQNz3F8g0-26" target="09Z2PJbqX6GgQNz3F8g0-6">
          <mxGeometry relative="1" as="geometry">
            <mxPoint x="160" y="800" as="targetPoint" />
            <Array as="points">
              <mxPoint x="330" y="1010" />
              <mxPoint x="161" y="1010" />
              <mxPoint x="161" y="785" />
            </Array>
          </mxGeometry>
        </mxCell>
        <mxCell id="09Z2PJbqX6GgQNz3F8g0-26" value="&lt;u&gt;Mã log&lt;br&gt;&lt;/u&gt;" style="rounded=0;whiteSpace=wrap;html=1;" vertex="1" parent="1">
          <mxGeometry x="280" y="968" width="80" height="30" as="geometry" />
        </mxCell>
        <mxCell id="09Z2PJbqX6GgQNz3F8g0-31" value="Tài khoản tiết kiệm" style="text;html=1;align=center;verticalAlign=middle;resizable=0;points=[];autosize=1;strokeColor=none;fillColor=none;" vertex="1" parent="1">
          <mxGeometry x="25" y="1047.33" width="120" height="30" as="geometry" />
        </mxCell>
        <mxCell id="09Z2PJbqX6GgQNz3F8g0-32" value="&lt;u&gt;Số tài khoản&lt;br&gt;&lt;/u&gt;" style="rounded=0;whiteSpace=wrap;html=1;" vertex="1" parent="1">
          <mxGeometry x="160" y="1047.33" width="80" height="30" as="geometry" />
        </mxCell>
        <mxCell id="09Z2PJbqX6GgQNz3F8g0-33" value="Tiền gốc" style="rounded=0;whiteSpace=wrap;html=1;" vertex="1" parent="1">
          <mxGeometry x="240" y="1047.33" width="80" height="30" as="geometry" />
        </mxCell>
        <mxCell id="09Z2PJbqX6GgQNz3F8g0-34" value="Tiền lãi" style="rounded=0;whiteSpace=wrap;html=1;" vertex="1" parent="1">
          <mxGeometry x="320" y="1047.33" width="80" height="30" as="geometry" />
        </mxCell>
        <mxCell id="09Z2PJbqX6GgQNz3F8g0-35" value="" style="endArrow=none;dashed=1;html=1;rounded=0;" edge="1" parent="1">
          <mxGeometry width="50" height="50" relative="1" as="geometry">
            <mxPoint x="345" y="1077.33" as="sourcePoint" />
            <mxPoint x="395" y="1077.33" as="targetPoint" />
          </mxGeometry>
        </mxCell>
        <mxCell id="09Z2PJbqX6GgQNz3F8g0-36" value="Lãi suất" style="rounded=0;whiteSpace=wrap;html=1;" vertex="1" parent="1">
          <mxGeometry x="400" y="1047.33" width="80" height="30" as="geometry" />
        </mxCell>
        <mxCell id="09Z2PJbqX6GgQNz3F8g0-37" value="Lần rút gần nhất" style="rounded=0;whiteSpace=wrap;html=1;" vertex="1" parent="1">
          <mxGeometry x="480" y="1047.33" width="80" height="30" as="geometry" />
        </mxCell>
        <mxCell id="09Z2PJbqX6GgQNz3F8g0-43" value="Tổng tiền" style="rounded=0;whiteSpace=wrap;html=1;" vertex="1" parent="1">
          <mxGeometry x="560" y="1047.33" width="80" height="30" as="geometry" />
        </mxCell>
        <mxCell id="09Z2PJbqX6GgQNz3F8g0-46" style="edgeStyle=orthogonalEdgeStyle;rounded=0;orthogonalLoop=1;jettySize=auto;html=1;" edge="1" parent="1">
          <mxGeometry relative="1" as="geometry">
            <mxPoint x="200" y="1080" as="targetPoint" />
            <mxPoint x="475" y="396" as="sourcePoint" />
            <Array as="points">
              <mxPoint x="475" y="438" />
              <mxPoint x="880" y="438" />
              <mxPoint x="880" y="1140" />
              <mxPoint x="200" y="1140" />
            </Array>
          </mxGeometry>
        </mxCell>
        <mxCell id="09Z2PJbqX6GgQNz3F8g0-45" value="&lt;u&gt;Số tài khoản tiết kiệm&lt;br&gt;&lt;/u&gt;" style="rounded=0;whiteSpace=wrap;html=1;" vertex="1" parent="1">
          <mxGeometry x="440" y="368" width="80" height="30" as="geometry" />
        </mxCell>
        <mxCell id="09Z2PJbqX6GgQNz3F8g0-48" style="edgeStyle=orthogonalEdgeStyle;rounded=0;orthogonalLoop=1;jettySize=auto;html=1;entryX=0.625;entryY=1;entryDx=0;entryDy=0;entryPerimeter=0;" edge="1" parent="1" source="09Z2PJbqX6GgQNz3F8g0-47" target="_3DtKtyULnJ21L_lDsf4-121">
          <mxGeometry relative="1" as="geometry">
            <mxPoint x="250" y="750" as="targetPoint" />
            <Array as="points">
              <mxPoint x="560" y="430" />
              <mxPoint x="940" y="430" />
              <mxPoint x="940" y="750" />
              <mxPoint x="250" y="750" />
            </Array>
          </mxGeometry>
        </mxCell>
        <mxCell id="09Z2PJbqX6GgQNz3F8g0-47" value="&lt;u&gt;Mã tài khoản vay&lt;br&gt;&lt;/u&gt;" style="rounded=0;whiteSpace=wrap;html=1;" vertex="1" parent="1">
          <mxGeometry x="520" y="368" width="80" height="30" as="geometry" />
        </mxCell>
      </root>
    </mxGraphModel>
  </diagram>
</mxfile>
